PathFileType	4	(X/Y/Z)	C:\Users\Basilio\Documents\Thesis Gigler\squatting_fais\c3dfiles\054\SLS_front_pre4\markers_experimental.trc
DataRate	CameraRate	NumFrames	NumMarkers	Units	OrigDataRate	OrigDataStartFrame	OrigNumFrames
200.000000	200.000000	4	61	mm	200.000000	355	1421
Frame#	Time	FHD			LBHD			RBHD			C7			T10			CLAV			LSHO			LUUPA			LMUPA			LDUPA			LLEP			LMEP			LRAD			LUL			LRFIN			RSHO			RUPA1			RMUPA			RDUPA			RLEP			RMEP			RRAD			RUL			RUFIN			LASI			RASI			USACR			LSACR			RSACR			LTHI1			LTHI2			LTHI3			LTHI4			LLFC			LMFC			LTIB1			LTIB2			LTIB3			LTIB4			LLMAL			LMMAL			LHEE			LMT1			LMT2			LMT5			RTHI			RTHI2			RTHI3			RTHI4			RLFC			RMFC			RTIB1			RTIB2			RTIB3			RTIB4			RLMAL			RMMAL			RHEE			RMT1			RMT2			RMT5			
		X1	Y1	Z1	X2	Y2	Z2	X3	Y3	Z3	X4	Y4	Z4	X5	Y5	Z5	X6	Y6	Z6	X7	Y7	Z7	X8	Y8	Z8	X9	Y9	Z9	X10	Y10	Z10	X11	Y11	Z11	X12	Y12	Z12	X13	Y13	Z13	X14	Y14	Z14	X15	Y15	Z15	X16	Y16	Z16	X17	Y17	Z17	X18	Y18	Z18	X19	Y19	Z19	X20	Y20	Z20	X21	Y21	Z21	X22	Y22	Z22	X23	Y23	Z23	X24	Y24	Z24	X25	Y25	Z25	X26	Y26	Z26	X27	Y27	Z27	X28	Y28	Z28	X29	Y29	Z29	X30	Y30	Z30	X31	Y31	Z31	X32	Y32	Z32	X33	Y33	Z33	X34	Y34	Z34	X35	Y35	Z35	X36	Y36	Z36	X37	Y37	Z37	X38	Y38	Z38	X39	Y39	Z39	X40	Y40	Z40	X41	Y41	Z41	X42	Y42	Z42	X43	Y43	Z43	X44	Y44	Z44	X45	Y45	Z45	X46	Y46	Z46	X47	Y47	Z47	X48	Y48	Z48	X49	Y49	Z49	X50	Y50	Z50	X51	Y51	Z51	X52	Y52	Z52	X53	Y53	Z53	X54	Y54	Z54	X55	Y55	Z55	X56	Y56	Z56	X57	Y57	Z57	X58	Y58	Z58	X59	Y59	Z59	X60	Y60	Z60	X61	Y61	Z61	

356	1.775	-258.8934020996094	1792.350830078125	-1102.783813476563	-416.8811035156251	1729.427124023438	-1173.750854492188	-435.2234497070314	1730.573486328125	-1034.314453125	-456.318328857422	1555.73974609375	-1085.389526367188	-459.0511474609376	1224.054931640625	-1076.100341796875	-307.1866760253907	1510.482788085938	-1094.994995117188	-393.4270019531251	1555.985229492188	-1242.073486328125	-248.3713684082032	1424.727416992188	-1368.481323242188	-212.3895111083985	1457.87939453125	-1357.866088867188	-180.4788360595703	1411.888793945313	-1380.26708984375	-124.7129669189453	1411.9521484375	-1380.673583984375	-128.0982360839844	1346.152954101563	-1336.4013671875	136.1996459960938	1398.309326171875	-1322.13232421875	143.4018859863282	1370.018310546875	-1394.24951171875	228.9207763671876	1407.127319335938	-1345.049682617188	-372.4722595214844	1556.81396484375	-941.963317871094	-218.2869415283204	1438.45654296875	-812.656921386719	-182.2584533691407	1468.724731445313	-822.2193603515627	-151.0675506591797	1420.4599609375	-799.804870605469	-107.7162322998047	1414.246215820313	-801.8385009765627	-111.966911315918	1358.23583984375	-851.8234863281252	163.7394104003907	1455.841430664063	-881.5634765625002	160.3309173583985	1407.430541992188	-817.6688232421877	241.7169494628907	1473.185546875	-859.6204223632815	-254.2696533203126	1063.704467773438	-1181.677734375	-262.4734802246094	1099.987670898438	-933.090026855469	-452.874237060547	1130.530151367188	-1064.249267578125	-451.9607849121095	1095.517333984375	-1087.34521484375	-454.8524780273439	1101.26513671875	-1031.257934570313	-316.9122009277344	805.2920532226565	-1234.107299804688	-276.8138427734376	730.2004394531251	-1224.894897460938	-230.8771667480469	739.9820556640626	-1221.709838867188	-300.1594543457032	677.4384155273439	-1203.390625	-284.8239135742188	526.3864135742189	-1168.979614257813	-245.7747650146485	536.9768676757814	-1036.488403320313	-247.7847747802735	366.6774291992188	-1099.86572265625	-302.5369262695313	316.2496337890626	-1150.61279296875	-262.4246520996094	315.2504577636719	-1125.232055664063	-271.3460998535157	243.2686462402344	-1081.150268554688	-338.3673706054688	112.4082412719727	-1100.865478515625	-306.1452636718751	136.4867858886719	-1013.082275390625	-407.9506835937501	105.8236236572266	-1039.106079101563	-198.5292663574219	57.43304824829103	-1018.728759765625	-189.9861907958985	54.24642944335939	-1068.072998046875	-242.7341918945313	38.51945114135743	-1118.2646484375	-166.8372802734375	824.2037353515627	-846.7678222656252	-104.3814086914063	803.7259521484377	-858.2709960937502	-80.40836334228517	822.947692871094	-869.7171020507815	-82.23157501220705	723.6737670898439	-870.490905761719	-45.21744918823243	638.5925903320314	-876.6943359375002	-23.24102973937989	661.8045654296876	-1010.288696289063	47.46974182128907	563.6655883789064	-889.7406005859377	16.86141014099121	467.8013610839845	-853.9925537109377	60.45958709716798	479.9737854003907	-867.304382324219	93.27322387695314	441.2507934570314	-893.445251464844	113.405517578125	258.4860229492188	-874.1303710937502	145.2834930419922	284.6061096191407	-961.3977050781252	71.07874298095705	205.5251770019532	-933.9341430664065	287.3242492675782	254.6799011230469	-935.5001220703127	288.0112304687501	265.0921936035157	-888.9754028320315	244.2727203369141	233.325424194336	-841.6508789062502	
357	1.78	-258.6516723632813	1792.355712890625	-1102.84716796875	-416.5696716308595	1729.491088867188	-1173.800659179688	-434.9422912597657	1730.5673828125	-1034.345458984375	-456.1488647460939	1555.7939453125	-1085.433471679688	-459.3211364746095	1224.108154296875	-1076.13134765625	-307.1828308105469	1510.372680664063	-1094.9833984375	-393.2435302734376	1556.0048828125	-1242.0751953125	-248.4258575439454	1424.689819335938	-1368.370239257813	-212.2263946533204	1457.688354492188	-1357.799194335938	-180.3592987060547	1411.620849609375	-1380.222778320313	-124.5785369873047	1411.663696289063	-1380.597045898438	-127.9996948242188	1345.561401367188	-1336.288696289063	136.7926635742188	1397.696533203125	-1321.77734375	143.2415008544922	1369.686645507813	-1394.093872070313	229.0344848632813	1406.517578125	-1344.781494140625	-372.4025878906251	1556.826416015625	-941.968688964844	-218.2319946289063	1438.398193359375	-812.7265625000002	-182.2156219482422	1468.688354492188	-822.296813964844	-150.968017578125	1420.372192382813	-799.8950805664065	-107.6679840087891	1414.192260742188	-801.9155273437502	-111.8816375732422	1358.25	-851.9170532226565	163.7117004394532	1455.776733398438	-881.6588134765627	160.3484497070313	1407.399169921875	-817.7524414062502	241.7389221191407	1473.1474609375	-859.7200317382815	-254.5606384277344	1063.70947265625	-1181.619873046875	-262.7926940917969	1099.905151367188	-933.0562133789065	-453.0586547851564	1130.5498046875	-1064.304931640625	-452.691131591797	1095.4833984375	-1087.404907226563	-455.867645263672	1101.3740234375	-1031.051635742188	-317.1476745605469	805.2303466796877	-1234.15234375	-276.9942626953126	730.1612548828126	-1224.937133789063	-231.012924194336	739.9486694335939	-1221.751342773438	-300.2381591796876	677.3994750976564	-1203.491577148438	-284.9090270996094	526.3084106445314	-1168.999755859375	-245.7819976806641	536.9399414062501	-1036.514282226563	-247.8482666015626	366.6813049316407	-1099.923583984375	-302.5693054199219	316.2024230957032	-1150.619140625	-262.3961181640626	315.2427978515626	-1125.206665039063	-271.4202880859376	243.1732635498047	-1081.107788085938	-338.4247436523438	112.3519363403321	-1100.886352539063	-306.1700439453126	136.4571533203125	-1013.090576171875	-407.9584960937501	105.771224975586	-1039.146240234375	-198.5240631103516	57.4328956604004	-1018.751953125	-189.6863098144532	54.20640563964845	-1067.883178710938	-242.7440032958985	38.52842712402344	-1118.272583007813	-167.2758941650391	824.0531005859377	-846.7014160156252	-105.0162887573242	803.6421508789065	-858.0715332031252	-80.84783935546876	822.9025878906252	-869.642761230469	-82.71106719970705	723.6185302734376	-870.4480590820315	-45.53329086303712	638.4739379882814	-876.6931152343752	-23.69181442260743	661.7485351562501	-1010.173217773438	47.05541992187501	563.4701538085939	-889.648132324219	16.42623710632325	467.4609375000001	-854.4925537109377	59.71799850463869	480.0272827148439	-867.2460937500002	92.82703399658205	441.0863342285157	-893.533630371094	112.9765701293946	258.3860473632813	-874.1402587890627	144.6644439697266	284.4105834960938	-961.3398437500002	70.32967376708986	205.4904937744141	-933.7608032226565	286.7480773925782	254.4703216552735	-935.4405517578127	287.1210937500001	264.6134643554688	-888.6989746093752	243.6204376220704	233.1160125732422	-841.6118164062502	
358	1.785	-258.4772033691407	1792.288696289063	-1102.846801757813	-416.4363708496095	1729.502319335938	-1173.831176757813	-434.7935180664064	1730.60400390625	-1034.392944335938	-455.994598388672	1555.846801757813	-1085.52880859375	-459.5484619140626	1224.20166015625	-1076.169067382813	-307.0788269042969	1510.336181640625	-1095.039672851563	-393.0154418945314	1556.0283203125	-1242.173095703125	-248.2973632812501	1424.588623046875	-1368.412963867188	-212.0091705322266	1457.448852539063	-1357.759521484375	-180.20556640625	1411.419921875	-1380.110107421875	-124.4433212280274	1411.400268554688	-1380.509887695313	-127.909408569336	1345.257690429688	-1336.151000976563	136.399658203125	1397.236328125	-1321.723022460938	143.2390899658203	1369.177124023438	-1393.959106445313	229.4418182373047	1405.962158203125	-1344.63330078125	-372.3045349121094	1556.779052734375	-942.0650024414065	-218.1988677978516	1438.375732421875	-812.7780761718752	-182.0670318603516	1468.630249023438	-822.3806152343752	-150.9662475585938	1420.33447265625	-800.0881958007815	-107.647689819336	1414.146850585938	-801.9776000976565	-111.8389282226563	1358.187866210938	-851.958923339844	163.6927642822266	1455.778198242188	-881.776550292969	160.4457244873047	1407.307983398438	-817.8751220703127	241.7713012695313	1473.105712890625	-859.8137817382815	-254.8093261718751	1063.680786132813	-1181.616821289063	-263.2974853515626	1099.809936523438	-932.9739379882815	-453.2700805664064	1130.544799804688	-1064.333129882813	-452.8584594726564	1095.533935546875	-1087.501220703125	-456.2312622070314	1101.401611328125	-1031.078491210938	-317.3798522949219	805.1882934570315	-1234.135009765625	-277.0758056640626	730.1504516601564	-1224.964965820313	-231.1529998779297	739.8774414062501	-1221.759887695313	-300.3718566894532	677.3524169921876	-1203.510498046875	-284.8663635253907	526.2651367187501	-1169.0400390625	-245.8444519042969	536.9108276367189	-1036.581298828125	-247.7896575927735	366.6210937500001	-1100.044189453125	-302.5706481933594	316.2032775878907	-1150.6171875	-262.4149475097657	315.2355041503907	-1125.285888671875	-271.4248657226563	243.2045898437501	-1081.22216796875	-338.3972473144532	112.3564834594727	-1100.893676757813	-306.2129516601563	136.4349670410157	-1013.111083984375	-407.9691467285157	105.7871322631836	-1039.144653320313	-198.5011291503907	57.43330383300783	-1018.724975585938	-189.6680755615235	54.27285766601564	-1067.926391601563	-242.6854553222657	38.56175231933594	-1118.325073242188	-167.7821044921875	823.988220214844	-846.6848144531252	-105.4157257080078	803.5726318359377	-858.0251464843752	-81.32723236083986	822.7745361328127	-869.6448974609377	-83.21394348144533	723.5292358398439	-870.3406372070315	-45.99456787109376	638.4148559570314	-876.6091918945315	-24.14439964294434	661.8703613281251	-1010.048217773438	46.5111427307129	563.3593750000001	-889.5260009765627	15.6115779876709	467.4964904785157	-854.3047485351565	59.08805465698244	480.0761718750001	-867.0496826171877	92.23164367675783	440.8633422851564	-893.4785156250002	112.2987442016602	258.2639160156251	-874.123229980469	144.1330718994141	284.2682189941407	-961.2575683593752	69.91232299804689	205.2770385742188	-933.8948364257815	286.7096557617188	254.2271423339844	-935.4705810546877	286.5780029296876	264.4564514160157	-888.7627563476565	243.1290893554688	232.874496459961	-841.6746215820315	
359	1.79	-258.1930541992188	1792.246948242188	-1102.941162109375	-416.1746826171876	1729.50244140625	-1173.849853515625	-434.6452026367189	1730.638916015625	-1034.435913085938	-455.7978820800782	1555.908813476563	-1085.61279296875	-459.6724548339845	1224.2802734375	-1076.234497070313	-306.4580078125001	1510.95947265625	-1094.888427734375	-392.752166748047	1556.04736328125	-1242.221435546875	-247.8885803222657	1424.3525390625	-1368.422119140625	-211.7656707763672	1457.26904296875	-1357.730712890625	-180.0722808837891	1411.142700195313	-1380.0986328125	-124.3824920654297	1411.192993164063	-1380.46533203125	-127.8838348388672	1345.043823242188	-1336.13134765625	136.3324890136719	1396.77197265625	-1321.546020507813	143.3104248046875	1368.599853515625	-1393.754150390625	229.1948242187501	1405.408325195313	-1344.455932617188	-372.2354431152344	1556.769287109375	-942.1414184570315	-218.2141418457032	1438.332275390625	-812.8135375976565	-181.974349975586	1468.615966796875	-822.4629516601565	-150.9584350585938	1420.29931640625	-800.0241699218752	-107.6524047851563	1414.114868164063	-802.089294433594	-111.8029174804688	1358.176513671875	-852.0484008789065	163.69384765625	1455.706420898438	-881.8831787109377	160.5344390869141	1407.256958007813	-817.9724121093752	241.7489776611329	1473.100219726563	-859.9188232421877	-255.1184539794922	1063.661865234375	-1181.506958007813	-263.7015075683594	1099.73046875	-932.9304199218752	-453.5556640625001	1130.589599609375	-1064.351806640625	-452.809783935547	1095.543823242188	-1087.567016601563	-455.8315734863282	1101.347534179688	-1031.276245117188	-317.5547485351563	805.1282348632815	-1234.17236328125	-277.2232055664063	730.1312866210939	-1224.974731445313	-231.3343658447266	739.9140625000001	-1221.846435546875	-300.4832763671876	677.3356323242189	-1203.599731445313	-284.7560729980469	526.3843994140626	-1169.164184570313	-245.8683013916016	536.8524169921876	-1036.5751953125	-247.8079528808594	366.6388549804688	-1100.0498046875	-302.6667785644532	316.1669311523438	-1150.638793945313	-262.4188232421876	315.2087097167969	-1125.302124023438	-271.5049438476563	243.1826171875001	-1081.2490234375	-338.3979797363282	112.3532104492188	-1100.906616210938	-306.2203674316407	136.4396667480469	-1013.123718261719	-407.9602050781251	105.7837448120117	-1039.151733398438	-198.5369415283204	57.46127700805665	-1018.731750488281	-189.9975128173828	54.29382705688478	-1068.146240234375	-242.7012939453126	38.56264877319337	-1118.322021484375	-168.0877685546875	823.885192871094	-846.7630004882815	-105.8089141845703	803.4946899414065	-857.9315185546877	-82.02027130126955	822.5830688476565	-869.4368896484377	-83.66037750244142	723.3916015625001	-870.3364257812502	-46.36291885375977	638.3396606445314	-876.6136474609377	-24.48105430603028	661.8375244140626	-1009.967346191406	45.95699691772462	563.2044067382814	-889.4096679687502	15.20243263244629	467.2925109863282	-854.3288574218752	58.55887985229494	479.8018493652345	-867.015563964844	91.5907669067383	440.7095947265626	-893.2613525390627	111.6598281860352	258.0751342773438	-874.1397705078127	143.6414794921875	284.1984252929688	-961.4609985351565	69.24922180175783	205.174057006836	-933.859069824219	285.9986267089844	254.0399932861329	-935.4246215820315	285.9203186035157	264.2547912597657	-888.689147949219	242.4848937988282	232.6972808837891	-841.6343994140627	
